<?xml version="1.0" encoding="utf-8" ?>
<svg xmlns="http://www.w3.org/2000/svg" xmlns:xlink="http://www.w3.org/1999/xlink" width="596" height="596">
	<path fill="#D3F8FF" transform="scale(1.16482 1.16482)" d="M280.911 474.23L280.736 484.764L230.338 484.966L230.461 143.552C230.459 137.67 230.779 131.628 230.432 125.773L229.722 119.16L367.043 261.03L425.489 320.472C428.954 323.925 432.344 327.527 436.196 330.553C436.627 326.246 436.47 321.875 436.471 317.55L436.742 289.15C436.86 286.969 437.072 287.286 435.564 285.734L322.686 169.716L232.846 76.6143C230.812 74.374 230.304 74.0323 230.359 71.0382L230.462 39.8389C230.458 34.3829 230.751 28.7383 229.992 23.3286L261.264 23.5786C267.428 23.6652 266.969 23.9856 270.832 28.412L312.455 71.7992L414.963 175.186L487.454 249.385C488.545 250.515 488.784 250.49 488.728 252.021L488.57 465.665L280.795 243.984L280.911 474.23Z"/>
	<path fill="#D3F8FF" transform="scale(1.16482 1.16482)" d="M151.223 436.439C143.31 460.134 127.635 474.001 106.091 485.348C105.078 485.881 102.753 487.473 101.718 487.508L101.782 23.9142C128.511 31.4566 148.02 55.8389 153.85 82.4922C155.276 89.0119 154.927 96.0421 154.931 102.676L155.028 226.926L201.763 226.819L201.485 286.349L155.269 286.047C154.789 289.668 154.92 293.313 154.917 296.957L154.926 407.803C154.926 418.873 154.758 425.749 151.223 436.439Z"/>
	<path fill="#D3F8FF" transform="scale(1.16482 1.16482)" d="M40.4445 471.768C30.8861 461.025 24.3724 448.049 23.5308 433.548L23.3531 101.537C23.3553 94.3137 23.1171 86.9933 23.6019 79.7842C25.4132 52.8514 44.3797 33.7609 68.352 24.4719L68.6838 24.5115C68.9313 25.2542 68.7515 26.1647 68.7153 26.9503L67.5582 488.945C57.1666 484.345 48.5278 479.84 40.4445 471.768Z"/>
</svg>
