<?xml version="1.0" encoding="utf-8" ?>
<svg xmlns="http://www.w3.org/2000/svg" xmlns:xlink="http://www.w3.org/1999/xlink" width="1023" height="1023">
	<path fill="#E4F5FF" d="M530.13 82.25C548.992 81.3895 567.879 83.488 586.515 86.1444C599.255 87.9604 612.303 89.9906 624.763 93.1936L651.079 101.243C667.937 106.536 684.12 112.163 700.123 119.739C802.097 168.009 880.346 256.843 918.137 362.774C956.015 468.954 951.284 589.422 902.746 691.416C863.805 773.244 799.943 842.148 720.867 886.513C698.49 899.068 674.779 909.413 650.586 917.936C544.646 955.259 426.651 945.931 325.84 897.704C280.118 875.25 236.794 845.895 201.128 809.377L192.483 801.243C187.347 795.963 182.666 790.181 177.869 784.591C130.288 729.142 98.1553 659.832 86.132 587.734C84.1892 576.083 83.2633 564.435 82.4369 552.67L81.0201 507.25C82.3919 432.929 105.604 349.751 160.33 296.938C186.864 271.332 223.568 254.798 260.669 255.509C282.028 255.919 303.51 265.162 319.553 279.042C326.505 285.057 332.589 292.149 338.971 298.75C352.141 312.373 366.585 323.899 383.861 331.936C400.797 339.815 420.617 343.543 439.25 343.773C444.462 343.837 448.943 342.927 452.75 339.021C455.555 336.143 457.079 332.68 456.924 328.631C456.736 323.713 454.299 318.175 449.579 316.014C443.386 313.178 434.473 313.888 427.75 313.506C402.293 312.057 378.38 303.524 359.719 285.823C342.1 269.112 333.07 245.365 332.606 221.329C332.022 191.165 344.662 162.773 365.42 141.25C406.458 98.6977 472.852 83.3185 530.13 82.25Z"/>
</svg>
