<?xml version="1.0" encoding="utf-8" ?>
<svg xmlns="http://www.w3.org/2000/svg" xmlns:xlink="http://www.w3.org/1999/xlink" width="1023" height="1023">
	<path fill="#00101C" d="M532.283 93.7173C555.586 92.6912 579.839 96.0492 602.479 101.347C629.46 107.661 655.263 116.677 680.127 128.966C769.148 172.965 838.327 252.75 870.004 346.792C895.894 423.654 897.637 507.415 875.265 585.394C868.133 610.255 858.148 634.546 846.633 657.676C799.058 753.246 717.29 831.582 622.019 879.015C603.307 888.332 584.279 896.792 564.43 903.414C497.881 925.616 427.874 934.17 358.377 922.441C328.213 917.35 299.582 908.953 272.156 895.251C256.249 888.052 240.574 877.27 226.857 866.455C208.522 852 191.353 835.019 177.75 816.012C155.285 784.624 141.071 746.156 136.635 707.875C131.987 667.759 137.373 626.658 152.89 589.323C159.411 573.636 167.78 558.286 178.423 544.995C192.418 527.519 209.395 513.742 229.622 504.024C260.236 489.317 299.168 486.019 332.25 492.541C345.947 495.241 359.181 499.761 372.69 503.21C389.504 507.504 406.5 508.794 423.752 506.795C454.947 503.18 484.016 485.549 503.258 460.983C521.51 437.682 532.385 409.591 528.592 379.686C525.856 358.115 515.212 338.268 497.96 324.937C483.457 313.731 462.767 306.755 444.351 309.271C433.795 310.714 424.277 313.853 414.007 316.433C401.932 319.468 390.08 321.313 377.641 322.088C359.156 323.241 336.451 319.562 322.207 306.802C311.876 297.548 307.624 285.245 306.888 271.667C305.062 237.994 324.568 204.269 346.401 180.042C381.854 140.702 433.174 110.905 484.729 99.4461C500.475 95.9464 516.218 94.5635 532.283 93.7173ZM782.269 424.587C769.879 427.087 761.763 434.071 754.859 444.444C747.647 455.279 742.47 467.28 736.908 479L716.854 519.094C707.579 536.116 696.925 552.738 684.623 567.73C647.016 613.562 595.256 646.481 536.931 658.291C527.321 660.237 517.591 661.65 507.81 662.35L480.258 664.024C450.694 667.185 422.314 676.614 405.145 702.506C394.792 718.121 392.946 737.521 396.75 755.545C402.773 784.085 422.812 810.64 447.193 826.285L449.198 827.556C484.542 847.355 524.995 848.7 563.504 837.879C577.599 833.918 591.092 828.208 604.219 821.781C645.946 801.352 681.708 771.068 712.451 736.497C732.278 714.202 749.831 690.236 764.368 664.153C774.287 646.356 783.488 627.936 791.033 609C798.691 589.779 804.734 570.113 809.548 550C814.361 529.893 817.946 509.281 818.079 488.558C818.151 477.399 817.687 466.517 814.641 455.713C812.963 449.764 810.563 443.994 807.212 438.791C802.851 432.021 797.407 426.905 789.363 424.955C787.144 424.418 784.545 424.419 782.269 424.587Z"/>
</svg>
